ply
format ascii 1.0
comment Created by Blender 2.66 (sub 1) - www.blender.org, source file: ''
element vertex 24
property float x
property float y
property float z
property float nx
property float ny
property float nz
element face 6
property list uchar uint vertex_indices
end_header
1.000000 1.000000 -1.000000 0.000000 0.000000 -1.000000
1.000000 -1.000000 -1.000000 0.000000 0.000000 -1.000000
-1.000000 -1.000000 -1.000000 0.000000 0.000000 -1.000000
-1.000000 1.000000 -1.000000 0.000000 0.000000 -1.000000
0.278001 0.059485 0.995314 -0.018030 0.035618 0.999203
-0.240621 0.070616 0.986094 -0.018030 0.035618 0.999203
-0.235190 -0.370115 1.001367 -0.018030 0.035618 0.999203
0.284042 -0.357352 1.010817 -0.018030 0.035618 0.999203
1.000000 1.000000 -1.000000 0.941089 0.004521 0.338130
0.278001 0.059485 0.995314 0.941089 0.004521 0.338130
0.284042 -0.357352 1.010817 0.941089 0.004521 0.338130
1.000000 -1.000000 -1.000000 0.941089 0.004521 0.338130
1.000000 -1.000000 -1.000000 0.003695 -0.953211 0.302282
0.284042 -0.357352 1.010817 0.003695 -0.953211 0.302282
-0.235190 -0.370115 1.001367 0.003695 -0.953211 0.302282
-1.000000 -1.000000 -1.000000 0.003695 -0.953211 0.302282
-1.000000 -1.000000 -1.000000 -0.934081 0.000156 0.357060
-0.235190 -0.370115 1.001367 -0.934081 0.000156 0.357060
-0.240621 0.070616 0.986094 -0.934081 0.000156 0.357060
-1.000000 1.000000 -1.000000 -0.934081 0.000156 0.357060
0.278001 0.059485 0.995314 0.002444 0.905149 0.425087
1.000000 1.000000 -1.000000 0.002444 0.905149 0.425087
-1.000000 1.000000 -1.000000 0.002444 0.905149 0.425087
-0.240621 0.070616 0.986094 0.002444 0.905149 0.425087
4 0 1 2 3
4 4 5 6 7
4 8 9 10 11
4 12 13 14 15
4 16 17 18 19
4 20 21 22 23
